<?xml version="1.0" encoding="UTF-8" standalone="no"?>
<!DOCTYPE svg PUBLIC "-//W3C//DTD SVG 1.1//EN" "http://www.w3.org/Graphics/SVG/1.1/DTD/svg11.dtd">
<svg version="1.1" xmlns="http://www.w3.org/2000/svg" xmlns:xlink="http://www.w3.org/1999/xlink" preserveAspectRatio="xMidYMid meet" viewBox="0 0 405 235" width="405" height="235"><defs><path d="M143.15 9.52L264.58 9.52L264.58 235.71L143.15 235.71L143.15 9.52Z" id="a8bIsEgDM"></path><path d="M264.58 84.52L399.11 84.52L399.11 235.71L264.58 235.71L264.58 84.52Z" id="aceNl6cPc"></path><path d="M8.63 52.38L143.15 52.38L143.15 235.71L8.63 235.71L8.63 52.38Z" id="b2KlSShYBg"></path><path d="M263.21 0C265.84 0 267.98 2.13 267.98 4.76C267.98 5.71 267.98 3.81 267.98 4.76C267.98 7.39 265.84 9.52 263.21 9.52C238.52 9.52 169.21 9.52 144.52 9.52C141.89 9.52 139.76 7.39 139.76 4.76C139.76 3.81 139.76 5.71 139.76 4.76C139.76 2.13 141.89 0 144.52 0C169.21 0 238.52 0 263.21 0Z" id="a7G0AhdoC"></path><path d="M305.42 52.38L353.04 52.38L353.04 92.86L305.42 92.86L305.42 52.38Z" id="a5YORSSea"></path><path d="M353.93 42.86C355.97 42.86 357.62 44.51 357.62 46.55C357.62 47.71 357.62 47.52 357.62 48.69C357.62 50.73 355.97 52.38 353.93 52.38C343.31 52.38 315.14 52.38 304.52 52.38C302.49 52.38 300.83 50.73 300.83 48.69C300.83 47.52 300.83 47.71 300.83 46.55C300.83 44.51 302.49 42.86 304.52 42.86C315.14 42.86 343.31 42.86 353.93 42.86Z" id="b1FISKCDk9"></path><path d="M401.31 75C403.35 75 405 76.65 405 78.69C405 79.86 405 79.67 405 80.83C405 82.87 403.35 84.52 401.31 84.52C390.69 84.52 362.52 84.52 351.91 84.52C349.87 84.52 348.21 82.87 348.21 80.83C348.21 79.67 348.21 79.86 348.21 78.69C348.21 76.65 349.87 75 351.91 75C362.52 75 390.69 75 401.31 75Z" id="akfeZkzOn"></path><path d="M308.33 75C310.37 75 312.02 76.65 312.02 78.69C312.02 79.86 312.02 79.67 312.02 80.83C312.02 82.87 310.37 84.52 308.33 84.52C297.71 84.52 269.55 84.52 258.93 84.52C256.89 84.52 255.24 82.87 255.24 80.83C255.24 79.67 255.24 79.86 255.24 78.69C255.24 76.65 256.89 75 258.93 75C269.55 75 297.71 75 308.33 75Z" id="a3Xha0gqq"></path><path d="M143.15 52.38L75.89 42.86L11.37 52.38L143.15 52.38Z" id="beTcO2Le9"></path><path d="M76.85 42.76C79.45 42.32 81.2 39.87 80.77 37.28C80.61 36.34 80.92 38.21 80.77 37.28C80.34 34.68 77.88 32.93 75.29 33.36C60.43 35.84 20.56 42.48 5.7 44.96C3.11 45.39 1.36 47.84 1.79 50.44C1.94 51.38 1.63 49.5 1.79 50.44C2.22 53.03 4.67 54.79 7.27 54.35C22.12 51.88 62 45.23 76.85 42.76Z" id="ahaFwGeLM"></path><path d="M74.7 42.76C72.11 42.32 70.36 39.87 70.79 37.28C70.94 36.34 70.63 38.21 70.79 37.28C71.22 34.68 73.67 32.93 76.27 33.36C91.12 35.84 131 42.48 145.85 44.96C148.45 45.39 150.2 47.84 149.77 50.44C149.61 51.38 149.92 49.5 149.77 50.44C149.34 53.03 146.88 54.79 144.29 54.35C129.43 51.88 89.56 45.23 74.7 42.76Z" id="b71bqqRT4"></path><path d="M63.39 201.55L88.39 201.55L88.39 235.71L63.39 235.71L63.39 201.55Z" id="a1YJ7cqsr"></path><path d="M192.56 197.98L215.18 197.98L215.18 235.71L192.56 235.71L192.56 197.98Z" id="a2L6efme09"></path><path d="M319.35 201.55L344.35 201.55L344.35 235.71L319.35 235.71L319.35 201.55Z" id="c1qYF39Aud"></path></defs><g><g><g><use xlink:href="#a8bIsEgDM" opacity="1" fill="#adeee3" fill-opacity="1"></use></g><g><use xlink:href="#aceNl6cPc" opacity="1" fill="#86deb7" fill-opacity="1"></use></g><g><use xlink:href="#b2KlSShYBg" opacity="1" fill="#79bcb8" fill-opacity="1"></use></g><g><use xlink:href="#a7G0AhdoC" opacity="1" fill="#79bcb8" fill-opacity="1"></use></g><g><use xlink:href="#a5YORSSea" opacity="1" fill="#86deb7" fill-opacity="1"></use></g><g><use xlink:href="#b1FISKCDk9" opacity="1" fill="#9dd9d2" fill-opacity="1"></use></g><g><use xlink:href="#akfeZkzOn" opacity="1" fill="#9dd9d2" fill-opacity="1"></use></g><g><use xlink:href="#a3Xha0gqq" opacity="1" fill="#9dd9d2" fill-opacity="1"></use></g><g><use xlink:href="#beTcO2Le9" opacity="1" fill="#79bcb8" fill-opacity="1"></use><g><use xlink:href="#beTcO2Le9" opacity="1" fill-opacity="0" stroke="#79bcb8" stroke-width="1" stroke-opacity="1"></use></g></g><g><use xlink:href="#ahaFwGeLM" opacity="1" fill="#86deb7" fill-opacity="1"></use></g><g><use xlink:href="#b71bqqRT4" opacity="1" fill="#86deb7" fill-opacity="1"></use></g><g><use xlink:href="#a1YJ7cqsr" opacity="1" fill="#9dd9d2" fill-opacity="1"></use></g><g><use xlink:href="#a2L6efme09" opacity="1" fill="#86deb7" fill-opacity="1"></use></g><g><use xlink:href="#c1qYF39Aud" opacity="1" fill="#79bcb8" fill-opacity="1"></use></g></g></g></svg>