<?xml version="1.0" encoding="UTF-8" standalone="no"?>
<!DOCTYPE svg PUBLIC "-//W3C//DTD SVG 1.1//EN" "http://www.w3.org/Graphics/SVG/1.1/DTD/svg11.dtd">
<svg version="1.1" xmlns="http://www.w3.org/2000/svg" xmlns:xlink="http://www.w3.org/1999/xlink" preserveAspectRatio="xMidYMid meet" viewBox="0 0 405 235" width="405" height="235"><defs><path d="M264.58 9.52L264.58 235.71L143.15 235.71L143.15 9.52L264.58 9.52Z" id="f1h0HNNjP"></path><path d="M399.11 84.52L399.11 235.71L264.58 235.71L264.58 84.52L399.11 84.52Z" id="frnrku23B"></path><path d="M143.15 52.38L143.15 235.71L8.63 235.71L8.63 52.38L143.15 52.38Z" id="b5aGZxkYFH"></path><path d="M267.98 4.76C267.98 5.71 267.98 3.81 267.98 4.76C267.98 7.39 265.84 9.52 263.21 9.52C238.52 9.52 169.21 9.52 144.52 9.52C141.89 9.52 139.76 7.39 139.76 4.76C139.76 3.81 139.76 5.71 139.76 4.76C139.76 2.13 141.89 0 144.52 0C169.21 0 238.52 0 263.21 0C265.84 0 267.98 2.13 267.98 4.76Z" id="gCyZNXr20"></path><path d="M353.04 52.38L353.04 92.86L305.42 92.86L305.42 52.38L353.04 52.38Z" id="aajwnjbYWP"></path><path d="M357.62 46.55C357.62 47.71 357.62 47.52 357.62 48.69C357.62 50.73 355.97 52.38 353.93 52.38C343.31 52.38 315.14 52.38 304.52 52.38C302.49 52.38 300.83 50.73 300.83 48.69C300.83 47.52 300.83 47.71 300.83 46.55C300.83 44.51 302.49 42.86 304.52 42.86C315.14 42.86 343.31 42.86 353.93 42.86C355.97 42.86 357.62 44.51 357.62 46.55Z" id="f2VXIYO9yI"></path><path d="M405 78.69C405 79.86 405 79.67 405 80.83C405 82.87 403.35 84.52 401.31 84.52C390.69 84.52 362.52 84.52 351.91 84.52C349.87 84.52 348.21 82.87 348.21 80.83C348.21 79.67 348.21 79.86 348.21 78.69C348.21 76.65 349.87 75 351.91 75C362.52 75 390.69 75 401.31 75C403.35 75 405 76.65 405 78.69Z" id="jaq91ggEm"></path><path d="M312.02 78.69C312.02 79.86 312.02 79.67 312.02 80.83C312.02 82.87 310.37 84.52 308.33 84.52C297.71 84.52 269.55 84.52 258.93 84.52C256.89 84.52 255.24 82.87 255.24 80.83C255.24 79.67 255.24 79.86 255.24 78.69C255.24 76.65 256.89 75 258.93 75C269.55 75 297.71 75 308.33 75C310.37 75 312.02 76.65 312.02 78.69Z" id="c6eFvp9pMQ"></path><path d="M75.89 42.86L11.37 52.38L143.15 52.38L75.89 42.86Z" id="b6i9P7KO4P"></path><path d="M75.89 42.86L11.37 52.38L143.15 52.38L75.89 42.86Z" id="a2yxxNHIev"></path><path d="M80.77 37.28C80.61 36.34 80.92 38.21 80.77 37.28C80.34 34.68 77.88 32.93 75.29 33.36C60.43 35.84 20.56 42.48 5.7 44.96C3.11 45.39 1.36 47.84 1.79 50.44C1.94 51.38 1.63 49.5 1.79 50.44C2.22 53.03 4.67 54.79 7.27 54.35C22.12 51.88 62 45.23 76.85 42.76C79.45 42.32 81.2 39.87 80.77 37.28Z" id="cKz8oxQfN"></path><path d="M70.79 37.28C70.94 36.34 70.63 38.21 70.79 37.28C71.22 34.68 73.67 32.93 76.27 33.36C91.12 35.84 131 42.48 145.85 44.96C148.45 45.39 150.2 47.84 149.77 50.44C149.61 51.38 149.92 49.5 149.77 50.44C149.34 53.03 146.88 54.79 144.29 54.35C129.43 51.88 89.56 45.23 74.7 42.76C72.11 42.32 70.36 39.87 70.79 37.28Z" id="eeKWCXkoo"></path><path d="M88.39 201.55L88.39 235.71L63.39 235.71L63.39 201.55L88.39 201.55Z" id="l3D5w2JTs"></path><path d="M215.18 197.98L215.18 235.71L192.56 235.71L192.56 197.98L215.18 197.98Z" id="l2TBH2XSXh"></path><path d="M344.35 201.55L344.35 235.71L319.35 235.71L319.35 201.55L344.35 201.55Z" id="a34sTvC8eJ"></path></defs><g><g><g><use xlink:href="#f1h0HNNjP" opacity="1" fill="#f7c100" fill-opacity="1"></use><g><use xlink:href="#f1h0HNNjP" opacity="1" fill-opacity="0" stroke="#000000" stroke-width="1" stroke-opacity="0"></use></g></g><g><use xlink:href="#frnrku23B" opacity="1" fill="#f4e409" fill-opacity="1"></use><g><use xlink:href="#frnrku23B" opacity="1" fill-opacity="0" stroke="#000000" stroke-width="1" stroke-opacity="0"></use></g></g><g><use xlink:href="#b5aGZxkYFH" opacity="1" fill="#f18805" fill-opacity="1"></use><g><use xlink:href="#b5aGZxkYFH" opacity="1" fill-opacity="0" stroke="#000000" stroke-width="1" stroke-opacity="0"></use></g></g><g><use xlink:href="#gCyZNXr20" opacity="1" fill="#eee82c" fill-opacity="1"></use><g><use xlink:href="#gCyZNXr20" opacity="1" fill-opacity="0" stroke="#000000" stroke-width="1" stroke-opacity="0"></use></g></g><g><use xlink:href="#aajwnjbYWP" opacity="1" fill="#f4e409" fill-opacity="1"></use><g><use xlink:href="#aajwnjbYWP" opacity="1" fill-opacity="0" stroke="#000000" stroke-width="1" stroke-opacity="0"></use></g></g><g><use xlink:href="#f2VXIYO9yI" opacity="1" fill="#ffff82" fill-opacity="1"></use><g><use xlink:href="#f2VXIYO9yI" opacity="1" fill-opacity="0" stroke="#000000" stroke-width="1" stroke-opacity="0"></use></g></g><g><use xlink:href="#jaq91ggEm" opacity="1" fill="#ffff82" fill-opacity="1"></use><g><use xlink:href="#jaq91ggEm" opacity="1" fill-opacity="0" stroke="#000000" stroke-width="1" stroke-opacity="0"></use></g></g><g><use xlink:href="#c6eFvp9pMQ" opacity="1" fill="#ffff82" fill-opacity="1"></use><g><use xlink:href="#c6eFvp9pMQ" opacity="1" fill-opacity="0" stroke="#000000" stroke-width="1" stroke-opacity="0"></use></g></g><g><use xlink:href="#b6i9P7KO4P" opacity="1" fill="#79bcb8" fill-opacity="1"></use><g><use xlink:href="#b6i9P7KO4P" opacity="1" fill-opacity="0" stroke="#000000" stroke-width="1" stroke-opacity="0"></use></g></g><g><use xlink:href="#a2yxxNHIev" opacity="1" fill="#f18805" fill-opacity="1"></use></g><g><use xlink:href="#cKz8oxQfN" opacity="1" fill="#ffff82" fill-opacity="1"></use><g><use xlink:href="#cKz8oxQfN" opacity="1" fill-opacity="0" stroke="#000000" stroke-width="1" stroke-opacity="0"></use></g></g><g><use xlink:href="#eeKWCXkoo" opacity="1" fill="#ffff82" fill-opacity="1"></use><g><use xlink:href="#eeKWCXkoo" opacity="1" fill-opacity="0" stroke="#000000" stroke-width="1" stroke-opacity="0"></use></g></g><g><use xlink:href="#l3D5w2JTs" opacity="1" fill="#f7c100" fill-opacity="1"></use><g><use xlink:href="#l3D5w2JTs" opacity="1" fill-opacity="0" stroke="#000000" stroke-width="1" stroke-opacity="0"></use></g></g><g><use xlink:href="#l2TBH2XSXh" opacity="1" fill="#ffff82" fill-opacity="1"></use><g><use xlink:href="#l2TBH2XSXh" opacity="1" fill-opacity="0" stroke="#000000" stroke-width="1" stroke-opacity="0"></use></g></g><g><use xlink:href="#a34sTvC8eJ" opacity="1" fill="#f7c100" fill-opacity="1"></use><g><use xlink:href="#a34sTvC8eJ" opacity="1" fill-opacity="0" stroke="#000000" stroke-width="1" stroke-opacity="0"></use></g></g></g></g></svg>